# xmcd
#
# Track frame offsets: 
#        150
#        12403
#        25382
#        43410
#        58812
#        70302
#        83959
#        100482
#        113694
#        127218
#        143335
#        160142
#        170487
#        182967
#        196798
#        207151
#
# Disc length: 2923 seconds
#
# Revision: 0
# Processed by: cddbd v1.5.2PL0 Copyright (c) Steve Scherf et al.
# Submitted via: ExactAudioCopy v1.3
#
DISCID=e90b6910
DTITLE=Ray Price - Ray Price_A New Place To Begin
DYEAR=2014
DGENRE=Country
TTITLE0=01 (I'm looking For) A New Place To Begin
TTITLE1=Everyone Gets Crazy Now and Then
TTITLE2=03 Better Class Of Loser
TTITLE3=04 What Am I Gonna Do With You
TTITLE4=05 I'll Sail My Ship Alone
TTITLE5=06 Nothing To Go On
TTITLE6=07 Stormy Weather
TTITLE7=08 We're Starting New Memories
TTITLE8=09 Willie Write Me A Song
TTITLE9=10 San Antonio Rose
TTITLE10=11 Old Loves Never Die
TTITLE11=12 One Fiddle, Two Fiddle
TTITLE12=13 The Last One You Remember
TTITLE13=14 Coors In Colorado
TTITLE14=15 One Away From One Too Many
TTITLE15=16 Scotch And Soda
EXTD=
EXTT0=
EXTT1=
EXTT2=
EXTT3=
EXTT4=
EXTT5=
EXTT6=
EXTT7=
EXTT8=
EXTT9=
EXTT10=
EXTT11=
EXTT12=
EXTT13=
EXTT14=
EXTT15=
PLAYORDER=
